<svg width="143" height="143" viewBox="0 0 143 143" fill="none" xmlns="http://www.w3.org/2000/svg">
<rect width="143" height="143" rx="71.5" fill="#4AEACD"/>
<path fill-rule="evenodd" clip-rule="evenodd" d="M46.4825 30C37.9318 30 31 36.9318 31 45.4825V96.5175C31 105.068 37.9318 112 46.4825 112H61.749C67.4335 112 72.0639 107.434 72.1434 101.75C72.2229 96.066 76.8532 91.5 82.5377 91.5H91.2098V106.839C91.2098 109.689 93.5204 112 96.3706 112H107.266C110.116 112 112.427 109.689 112.427 106.839V95.9441C112.427 93.0938 110.116 90.7832 107.266 90.7832H92.5V81.8234C92.5 76.1625 97.0891 71.5734 102.75 71.5734C108.411 71.5734 113 66.9843 113 61.3234V45.4825C113 36.9318 106.068 30 97.5175 30H46.4825ZM54.6916 46.0559C50.7912 46.0559 47.6294 49.2178 47.6294 53.1181V59.6371C47.6294 63.5374 50.7912 66.6993 54.6916 66.6993H61.2105C65.1109 66.6993 68.2727 63.5374 68.2727 59.6371V53.1181C68.2727 49.2178 65.1109 46.0559 61.2105 46.0559H54.6916Z" fill="black"/>
</svg>
